<svg xmlns="http://www.w3.org/2000/svg" viewBox="0 0 128 128">
  <defs>
    <linearGradient id="bg" x1="0%" y1="0%" x2="100%" y2="100%">
      <stop offset="0%" stop-color="#24292e" />
      <stop offset="100%" stop-color="#4f6173" />
    </linearGradient>
  </defs>
  <rect width="128" height="128" rx="16" fill="url(#bg)" />
  <!-- GitHub Logo -->
  <path fill="#ffffff" d="M64 20c-24.3 0-44 19.7-44 44 0 19.4 12.6 35.9 30 41.7 2.2 0.4 3-0.9 3-2.1 0-1 0-3.7-0.1-7.3-12.2 2.6-14.8-5.9-14.8-5.9-2-5.1-4.9-6.4-4.9-6.4-4-2.7 0.3-2.7 0.3-2.7 4.4 0.3 6.7 4.5 6.7 4.5 3.9 6.7 10.3 4.8 12.8 3.6 0.4-2.8 1.5-4.8 2.8-5.9-9.7-1.1-20-4.9-20-21.7 0-4.8 1.7-8.7 4.5-11.8-0.5-1.1-2-5.6 0.4-11.6 0 0 3.7-1.2 12 4.5 3.5-1 7.2-1.4 10.9-1.5 3.7 0 7.4 0.5 10.9 1.5 8.3-5.7 12-4.5 12-4.5 2.4 6.1 0.9 10.5 0.4 11.6 2.8 3.1 4.5 7 4.5 11.8 0 16.9-10.3 20.6-20.1 21.7 1.6 1.3 3 4 3 8 0 5.8-0.1 10.5-0.1 11.9 0 1.2 0.8 2.5 3 2.1 17.4-5.8 30-22.3 30-41.7 0-24.3-19.7-44-44-44z" />
  <!-- W symbol -->
  <text x="64" y="96" text-anchor="middle" font-family="Arial" font-size="65" font-weight="bold" fill="#ffffff">W</text>
  <!-- Prohibition sign -->
  <circle cx="84" cy="60" r="28" fill="#ff5555" fill-opacity="0.9" />
  <line x1="64" y1="40" x2="104" y2="80" stroke="#ffffff" stroke-width="8" />
</svg>